<svg xmlns="http://www.w3.org/2000/svg" xmlns:xlink="http://www.w3.org/1999/xlink" version="1.1" data-diagram-type="CLASS" style="width:1318px;height:476px;background:#FFFFFF;" width="1318px" height="476px" viewBox="0 0 1318 476" zoomAndPan="magnify" preserveAspectRatio="none" contentStyleType="text/css"><?plantuml 1.2026.8?><defs/><g font-family="sans-serif" lengthAdjust="spacing"><g class="title" data-source-line="1"><text x="529.251" y="23.132" fill="#000" font-size="14" textLength="252.813" font-weight="700" font-family="Arial">EnergyCore PostgreSQL - Billing ERD</text></g><!--class USERS--><g class="entity" data-qualified-name="USERS" id="ent0001" data-source-line="10"><rect x="64.5" y="89.599" width="152.068" height="56.099" fill="#F1F1F1" style="stroke:#181818;stroke-width:0.5;" rx="2.5" ry="2.5"/><ellipse cx="112.167" cy="105.599" rx="11" ry="11" fill="#ADD1B2" style="stroke:#181818;stroke-width:1;"/><path d="M111.026,106.396 L111.026,108.896 L115.354,108.896 L115.354,107.974 Q115.354,107.364 115.589,107.099 Q115.839,106.833 116.214,106.833 Q116.589,106.833 116.823,107.099 Q117.058,107.364 117.058,107.974 L117.058,110.599 L109.058,110.599 Q108.433,110.599 108.167,110.364 Q107.917,110.13 107.917,109.739 Q107.917,109.364 108.183,109.13 Q108.448,108.896 109.058,108.896 L109.323,108.896 L109.323,102.239 L109.058,102.239 Q108.433,102.239 108.167,102.005 Q107.917,101.771 107.917,101.38 Q107.917,101.005 108.167,100.771 Q108.433,100.536 109.058,100.536 L116.683,100.536 L116.683,103.13 Q116.683,103.739 116.448,104.005 Q116.229,104.255 115.839,104.255 Q115.464,104.255 115.229,104.005 Q114.995,103.739 114.995,103.13 L114.995,102.239 L111.026,102.239 L111.026,104.692 L112.511,104.692 Q112.511,104.036 112.636,103.849 Q112.901,103.442 113.37,103.442 Q113.745,103.442 113.979,103.708 Q114.214,103.958 114.214,104.567 L114.214,106.536 Q114.214,107.083 114.089,107.271 Q113.823,107.661 113.37,107.661 Q112.901,107.661 112.636,107.255 Q112.511,107.067 112.511,106.396 L111.026,106.396 Z " fill="#000"/><text x="132.667" y="110.681" fill="#000" font-size="14" textLength="48.234" font-family="Arial">USERS</text><line x1="65.5" y1="121.599" x2="215.568" y2="121.599" style="stroke:#181818;stroke-width:0.5;"/><text x="70.5" y="138.73" fill="#000" font-size="14" textLength="140.068" font-family="Arial">*id : BIGSERIAL «PK»</text></g><!--class PLANS--><g class="entity" data-qualified-name="PLANS" id="ent0002" data-source-line="13"><rect x="7" y="181.099" width="267.206" height="176.789" fill="#F1F1F1" style="stroke:#181818;stroke-width:0.5;" rx="2.5" ry="2.5"/><ellipse cx="113.398" cy="197.099" rx="11" ry="11" fill="#ADD1B2" style="stroke:#181818;stroke-width:1;"/><path d="M112.257,197.896 L112.257,200.396 L116.585,200.396 L116.585,199.474 Q116.585,198.864 116.82,198.599 Q117.07,198.333 117.445,198.333 Q117.82,198.333 118.054,198.599 Q118.289,198.864 118.289,199.474 L118.289,202.099 L110.289,202.099 Q109.664,202.099 109.398,201.864 Q109.148,201.63 109.148,201.239 Q109.148,200.864 109.414,200.63 Q109.679,200.396 110.289,200.396 L110.554,200.396 L110.554,193.739 L110.289,193.739 Q109.664,193.739 109.398,193.505 Q109.148,193.271 109.148,192.88 Q109.148,192.505 109.398,192.271 Q109.664,192.036 110.289,192.036 L117.914,192.036 L117.914,194.63 Q117.914,195.239 117.679,195.505 Q117.46,195.755 117.07,195.755 Q116.695,195.755 116.46,195.505 Q116.226,195.239 116.226,194.63 L116.226,193.739 L112.257,193.739 L112.257,196.192 L113.742,196.192 Q113.742,195.536 113.867,195.349 Q114.132,194.942 114.601,194.942 Q114.976,194.942 115.21,195.208 Q115.445,195.458 115.445,196.067 L115.445,198.036 Q115.445,198.583 115.32,198.771 Q115.054,199.161 114.601,199.161 Q114.132,199.161 113.867,198.755 Q113.742,198.567 113.742,197.896 L112.257,197.896 Z " fill="#000"/><text x="133.898" y="202.181" fill="#000" font-size="14" textLength="45.91" font-family="Arial">PLANS</text><line x1="8" y1="213.099" x2="273.206" y2="213.099" style="stroke:#181818;stroke-width:0.5;"/><text x="13" y="230.23" fill="#000" font-size="14" textLength="140.068" font-family="Arial">*id : BIGSERIAL «PK»</text><line x1="8" y1="237.197" x2="273.206" y2="237.197" style="stroke:#181818;stroke-width:1;"/><text x="13" y="254.329" fill="#000" font-size="14" textLength="175.841" font-family="Arial">code : VARCHAR(40) «UQ»</text><text x="13" y="270.428" fill="#000" font-size="14" textLength="140.041" font-family="Arial">name : VARCHAR(80)</text><text x="13" y="286.526" fill="#000" font-size="14" textLength="255.206" font-family="Arial">monthly_price_amount : NUMERIC(10,2)</text><text x="13" y="302.625" fill="#000" font-size="14" textLength="253.641" font-family="Arial">monthly_price_currency : VARCHAR(10)</text><text x="13" y="318.724" fill="#000" font-size="14" textLength="155.6" font-family="Arial">max_devices : INTEGER</text><text x="13" y="334.822" fill="#000" font-size="14" textLength="157.938" font-family="Arial">max_routines : INTEGER</text><text x="13" y="350.921" fill="#000" font-size="14" textLength="142.365" font-family="Arial">max_alerts : INTEGER</text></g><!--class SUBSCRIPTIONS--><g class="entity" data-qualified-name="SUBSCRIPTIONS" id="ent0003" data-source-line="24"><rect x="403" y="193.099" width="161.393" height="144.592" fill="#F1F1F1" style="stroke:#181818;stroke-width:0.5;" rx="2.5" ry="2.5"/><ellipse cx="424.768" cy="209.099" rx="11" ry="11" fill="#ADD1B2" style="stroke:#181818;stroke-width:1;"/><path d="M423.628,209.896 L423.628,212.396 L427.956,212.396 L427.956,211.474 Q427.956,210.864 428.19,210.599 Q428.44,210.333 428.815,210.333 Q429.19,210.333 429.425,210.599 Q429.659,210.864 429.659,211.474 L429.659,214.099 L421.659,214.099 Q421.034,214.099 420.768,213.864 Q420.518,213.63 420.518,213.239 Q420.518,212.864 420.784,212.63 Q421.05,212.396 421.659,212.396 L421.925,212.396 L421.925,205.739 L421.659,205.739 Q421.034,205.739 420.768,205.505 Q420.518,205.271 420.518,204.88 Q420.518,204.505 420.768,204.271 Q421.034,204.036 421.659,204.036 L429.284,204.036 L429.284,206.63 Q429.284,207.239 429.05,207.505 Q428.831,207.755 428.44,207.755 Q428.065,207.755 427.831,207.505 Q427.597,207.239 427.597,206.63 L427.597,205.739 L423.628,205.739 L423.628,208.192 L425.112,208.192 Q425.112,207.536 425.237,207.349 Q425.503,206.942 425.972,206.942 Q426.347,206.942 426.581,207.208 Q426.815,207.458 426.815,208.067 L426.815,210.036 Q426.815,210.583 426.69,210.771 Q426.425,211.161 425.972,211.161 Q425.503,211.161 425.237,210.755 Q425.112,210.567 425.112,209.896 L423.628,209.896 Z " fill="#000"/><text x="440.273" y="214.181" fill="#000" font-size="14" textLength="114.352" font-family="Arial">SUBSCRIPTIONS</text><line x1="404" y1="225.099" x2="563.393" y2="225.099" style="stroke:#181818;stroke-width:0.5;"/><text x="409" y="242.23" fill="#000" font-size="14" textLength="140.068" font-family="Arial">*id : BIGSERIAL «PK»</text><line x1="404" y1="249.197" x2="563.393" y2="249.197" style="stroke:#181818;stroke-width:1;"/><text x="409" y="266.329" fill="#000" font-size="14" textLength="149.393" font-family="Arial">user_id : BIGINT «LFK»</text><text x="409" y="282.428" fill="#000" font-size="14" textLength="140.841" font-family="Arial">plan_id : BIGINT «FK»</text><text x="409" y="298.526" fill="#000" font-size="14" textLength="142.372" font-family="Arial">status : VARCHAR(30)</text><text x="409" y="314.625" fill="#000" font-size="14" textLength="111.269" font-family="Arial">start_date : DATE</text><text x="409" y="330.724" fill="#000" font-size="14" textLength="107.399" font-family="Arial">end_date : DATE</text></g><!--class PAYMENTS--><g class="entity" data-qualified-name="PAYMENTS" id="ent0004" data-source-line="33"><rect x="693" y="107.099" width="225.199" height="176.789" fill="#F1F1F1" style="stroke:#181818;stroke-width:0.5;" rx="2.5" ry="2.5"/><ellipse cx="762.843" cy="123.099" rx="11" ry="11" fill="#ADD1B2" style="stroke:#181818;stroke-width:1;"/><path d="M761.702,123.896 L761.702,126.396 L766.03,126.396 L766.03,125.474 Q766.03,124.864 766.265,124.599 Q766.515,124.333 766.89,124.333 Q767.265,124.333 767.499,124.599 Q767.733,124.864 767.733,125.474 L767.733,128.099 L759.733,128.099 Q759.108,128.099 758.843,127.864 Q758.593,127.63 758.593,127.239 Q758.593,126.864 758.858,126.63 Q759.124,126.396 759.733,126.396 L759.999,126.396 L759.999,119.739 L759.733,119.739 Q759.108,119.739 758.843,119.505 Q758.593,119.271 758.593,118.88 Q758.593,118.505 758.843,118.271 Q759.108,118.036 759.733,118.036 L767.358,118.036 L767.358,120.63 Q767.358,121.239 767.124,121.505 Q766.905,121.755 766.515,121.755 Q766.14,121.755 765.905,121.505 Q765.671,121.239 765.671,120.63 L765.671,119.739 L761.702,119.739 L761.702,122.192 L763.187,122.192 Q763.187,121.536 763.312,121.349 Q763.577,120.942 764.046,120.942 Q764.421,120.942 764.655,121.208 Q764.89,121.458 764.89,122.067 L764.89,124.036 Q764.89,124.583 764.765,124.771 Q764.499,125.161 764.046,125.161 Q763.577,125.161 763.312,124.755 Q763.187,124.567 763.187,123.896 L761.702,123.896 Z " fill="#000"/><text x="783.343" y="128.181" fill="#000" font-size="14" textLength="77.014" font-family="Arial">PAYMENTS</text><line x1="694" y1="139.099" x2="917.199" y2="139.099" style="stroke:#181818;stroke-width:0.5;"/><text x="699" y="156.23" fill="#000" font-size="14" textLength="140.068" font-family="Arial">*id : BIGSERIAL «PK»</text><line x1="694" y1="163.197" x2="917.199" y2="163.197" style="stroke:#181818;stroke-width:1;"/><text x="699" y="180.329" fill="#000" font-size="14" textLength="149.393" font-family="Arial">user_id : BIGINT «LFK»</text><text x="699" y="196.428" fill="#000" font-size="14" textLength="189.075" font-family="Arial">subscription_id : BIGINT «FK»</text><text x="699" y="212.526" fill="#000" font-size="14" textLength="160.269" font-family="Arial">amount : NUMERIC(10,2)</text><text x="699" y="228.625" fill="#000" font-size="14" textLength="158.703" font-family="Arial">currency : VARCHAR(10)</text><text x="699" y="244.724" fill="#000" font-size="14" textLength="142.372" font-family="Arial">status : VARCHAR(30)</text><text x="699" y="260.822" fill="#000" font-size="14" textLength="213.199" font-family="Arial">payment_method : VARCHAR(50)</text><text x="699" y="276.921" fill="#000" font-size="14" textLength="139.269" font-family="Arial">paid_at : TIMESTAMP</text></g><!--class INVOICES--><g class="entity" data-qualified-name="INVOICES" id="ent0005" data-source-line="44"><rect x="1047" y="44.099" width="256.316" height="160.69" fill="#F1F1F1" style="stroke:#181818;stroke-width:0.5;" rx="2.5" ry="2.5"/><ellipse cx="1137.457" cy="60.099" rx="11" ry="11" fill="#ADD1B2" style="stroke:#181818;stroke-width:1;"/><path d="M1136.316,60.896 L1136.316,63.396 L1140.644,63.396 L1140.644,62.474 Q1140.644,61.864 1140.878,61.599 Q1141.128,61.333 1141.503,61.333 Q1141.878,61.333 1142.113,61.599 Q1142.347,61.864 1142.347,62.474 L1142.347,65.099 L1134.347,65.099 Q1133.722,65.099 1133.457,64.864 Q1133.207,64.63 1133.207,64.239 Q1133.207,63.864 1133.472,63.63 Q1133.738,63.396 1134.347,63.396 L1134.613,63.396 L1134.613,56.739 L1134.347,56.739 Q1133.722,56.739 1133.457,56.505 Q1133.207,56.271 1133.207,55.88 Q1133.207,55.505 1133.457,55.271 Q1133.722,55.036 1134.347,55.036 L1141.972,55.036 L1141.972,57.63 Q1141.972,58.239 1141.738,58.505 Q1141.519,58.755 1141.128,58.755 Q1140.753,58.755 1140.519,58.505 Q1140.285,58.239 1140.285,57.63 L1140.285,56.739 L1136.316,56.739 L1136.316,59.192 L1137.8,59.192 Q1137.8,58.536 1137.925,58.349 Q1138.191,57.942 1138.66,57.942 Q1139.035,57.942 1139.269,58.208 Q1139.503,58.458 1139.503,59.067 L1139.503,61.036 Q1139.503,61.583 1139.378,61.771 Q1139.113,62.161 1138.66,62.161 Q1138.191,62.161 1137.925,61.755 Q1137.8,61.567 1137.8,60.896 L1136.316,60.896 Z " fill="#000"/><text x="1157.957" y="65.181" fill="#000" font-size="14" textLength="66.903" font-family="Arial">INVOICES</text><line x1="1048" y1="76.099" x2="1302.316" y2="76.099" style="stroke:#181818;stroke-width:0.5;"/><text x="1053" y="93.23" fill="#000" font-size="14" textLength="140.068" font-family="Arial">*id : BIGSERIAL «PK»</text><line x1="1048" y1="100.197" x2="1302.316" y2="100.197" style="stroke:#181818;stroke-width:1;"/><text x="1053" y="117.329" fill="#000" font-size="14" textLength="149.393" font-family="Arial">user_id : BIGINT «LFK»</text><text x="1053" y="133.428" fill="#000" font-size="14" textLength="168.068" font-family="Arial">payment_id : BIGINT «FK»</text><text x="1053" y="149.526" fill="#000" font-size="14" textLength="244.316" font-family="Arial">invoice_number : VARCHAR(80) «UQ»</text><text x="1053" y="165.625" fill="#000" font-size="14" textLength="194.517" font-family="Arial">total_amount : NUMERIC(10,2)</text><text x="1053" y="181.724" fill="#000" font-size="14" textLength="158.703" font-family="Arial">currency : VARCHAR(10)</text><text x="1053" y="197.822" fill="#000" font-size="14" textLength="108.938" font-family="Arial">issued_at : DATE</text></g><!--link USERS to SUBSCRIPTIONS--><g class="link" data-entity-1="ent0001" data-entity-2="ent0003" id="lnk6" data-source-line="55" data-link-type="crowfoot"><path d="M224.282,144.588 C243.142,151.178 255.68,155.969 274,163.599 C317.34,181.649 348.346,196.269 386.786,215.699" style="stroke:#181818;stroke-width:1;stroke-dasharray:7,7;" fill="none" id="USERS-SUBSCRIPTIONS" codeLine="55"/><line x1="219.187" y1="147.044" x2="221.826" y2="139.492" style="stroke:#181818;stroke-width:1;"/><line x1="222.019" y1="148.034" x2="224.658" y2="140.482" style="stroke:#181818;stroke-width:1;"/><line x1="224.282" y1="144.588" x2="216.73" y2="141.949" style="stroke:#181818;stroke-width:1;"/><line x1="395.71" y1="220.21" x2="405.557" y2="218.464" style="stroke:#181818;stroke-width:1;"/><line x1="395.71" y1="220.21" x2="400.143" y2="229.173" style="stroke:#181818;stroke-width:1;"/><line x1="395.71" y1="220.21" x2="402.85" y2="223.819" style="stroke:#181818;stroke-width:1;"/><ellipse cx="390.355" cy="217.503" rx="4" ry="4" fill="none" style="stroke:#181818;stroke-width:1;"/><text x="310" y="175.792" fill="#000" font-size="13" textLength="57.078" font-family="Arial">logical FK</text></g><!--link PLANS to SUBSCRIPTIONS--><g class="link" data-entity-1="ent0002" data-entity-2="ent0003" id="lnk7" data-source-line="56" data-link-type="crowfoot"><path d="M282.319,267.945 C325.699,267.435 346.511,267.186 384.741,266.746" style="stroke:#181818;stroke-width:1;" fill="none" id="PLANS-SUBSCRIPTIONS" codeLine="56"/><line x1="278.367" y1="271.991" x2="278.273" y2="263.992" style="stroke:#181818;stroke-width:1;"/><line x1="281.367" y1="271.956" x2="281.272" y2="263.957" style="stroke:#181818;stroke-width:1;"/><line x1="282.319" y1="267.945" x2="274.32" y2="268.039" style="stroke:#181818;stroke-width:1;"/><line x1="394.741" y1="266.631" x2="402.671" y2="260.539" style="stroke:#181818;stroke-width:1;"/><line x1="394.741" y1="266.631" x2="402.809" y2="272.538" style="stroke:#181818;stroke-width:1;"/><line x1="394.741" y1="266.631" x2="402.74" y2="266.539" style="stroke:#181818;stroke-width:1;"/><ellipse cx="388.741" cy="266.7" rx="4" ry="4" fill="none" style="stroke:#181818;stroke-width:1;"/><text x="305" y="263.792" fill="#000" font-size="13" textLength="67.19" font-family="Arial">physical FK</text></g><!--link SUBSCRIPTIONS to PAYMENTS--><g class="link" data-entity-1="ent0003" data-entity-2="ent0004" id="lnk8" data-source-line="57" data-link-type="crowfoot"><path d="M571.825,246.498 C610.695,237.988 632.746,233.178 675.186,223.888" style="stroke:#181818;stroke-width:1;" fill="none" id="SUBSCRIPTIONS-PAYMENTS" codeLine="57"/><line x1="568.773" y1="251.261" x2="567.062" y2="243.446" style="stroke:#181818;stroke-width:1;"/><line x1="571.704" y1="250.619" x2="569.993" y2="242.804" style="stroke:#181818;stroke-width:1;"/><line x1="571.825" y1="246.498" x2="564.01" y2="248.209" style="stroke:#181818;stroke-width:1;"/><line x1="684.955" y1="221.749" x2="691.487" y2="214.177" style="stroke:#181818;stroke-width:1;"/><line x1="684.955" y1="221.749" x2="694.053" y2="225.9" style="stroke:#181818;stroke-width:1;"/><line x1="684.955" y1="221.749" x2="692.77" y2="220.039" style="stroke:#181818;stroke-width:1;"/><ellipse cx="679.094" cy="223.032" rx="4" ry="4" fill="none" style="stroke:#181818;stroke-width:1;"/><text x="595" y="224.792" fill="#000" font-size="13" textLength="67.19" font-family="Arial">physical FK</text></g><!--link USERS to PAYMENTS--><g class="link" data-entity-1="ent0001" data-entity-2="ent0004" id="lnk9" data-source-line="58" data-link-type="crowfoot"><path d="M224.535,127.363 C340.905,141.053 539.653,164.447 675.053,180.367" style="stroke:#181818;stroke-width:1;stroke-dasharray:7,7;" fill="none" id="USERS-PAYMENTS" codeLine="58"/><line x1="220.095" y1="130.869" x2="221.03" y2="122.923" style="stroke:#181818;stroke-width:1;"/><line x1="223.075" y1="131.219" x2="224.009" y2="123.274" style="stroke:#181818;stroke-width:1;"/><line x1="224.535" y1="127.363" x2="216.59" y2="126.429" style="stroke:#181818;stroke-width:1;"/><line x1="684.985" y1="181.534" x2="693.631" y2="176.51" style="stroke:#181818;stroke-width:1;"/><line x1="684.985" y1="181.534" x2="692.229" y2="188.428" style="stroke:#181818;stroke-width:1;"/><line x1="684.985" y1="181.534" x2="692.93" y2="182.469" style="stroke:#181818;stroke-width:1;"/><ellipse cx="679.026" cy="180.834" rx="4" ry="4" fill="none" style="stroke:#181818;stroke-width:1;"/><text x="455" y="146.792" fill="#000" font-size="13" textLength="57.078" font-family="Arial">logical FK</text></g><!--link PAYMENTS to INVOICES--><g class="link" data-entity-1="ent0004" data-entity-2="ent0005" id="lnk10" data-source-line="59" data-link-type="association"><path d="M926.115,172.492 C966.655,164.662 990.172,160.113 1031.962,152.043" style="stroke:#181818;stroke-width:1;" fill="none" id="PAYMENTS-INVOICES" codeLine="59"/><line x1="922.946" y1="177.177" x2="921.429" y2="169.323" style="stroke:#181818;stroke-width:1;"/><line x1="925.892" y1="176.609" x2="924.374" y2="168.754" style="stroke:#181818;stroke-width:1;"/><line x1="926.115" y1="172.492" x2="918.26" y2="174.009" style="stroke:#181818;stroke-width:1;"/><line x1="1035.89" y1="151.284" x2="1046.69" y2="149.199" style="stroke:#181818;stroke-width:1;"/><ellipse cx="1035.89" cy="151.284" rx="4" ry="4" fill="none" style="stroke:#181818;stroke-width:1;"/><line x1="1042.004" y1="146.03" x2="1043.521" y2="153.884" style="stroke:#181818;stroke-width:1;"/><text x="949" y="153.792" fill="#000" font-size="13" textLength="67.19" font-family="Arial">physical FK</text></g><!--link USERS to INVOICES--><g class="link" data-entity-1="ent0001" data-entity-2="ent0005" id="lnk11" data-source-line="60" data-link-type="crowfoot"><path d="M224.503,108.948 C363.183,95.528 660.94,72.109 918,89.599 C960.07,92.459 987.937,95.42 1028.917,101.21" style="stroke:#181818;stroke-width:1;stroke-dasharray:7,7;" fill="none" id="USERS-INVOICES" codeLine="60"/><line x1="220.907" y1="113.315" x2="220.136" y2="105.352" style="stroke:#181818;stroke-width:1;"/><line x1="223.893" y1="113.026" x2="223.122" y2="105.063" style="stroke:#181818;stroke-width:1;"/><line x1="224.503" y1="108.948" x2="216.54" y2="109.719" style="stroke:#181818;stroke-width:1;"/><line x1="1038.819" y1="102.609" x2="1047.579" y2="97.788" style="stroke:#181818;stroke-width:1;"/><line x1="1038.819" y1="102.609" x2="1045.901" y2="109.67" style="stroke:#181818;stroke-width:1;"/><line x1="1038.819" y1="102.609" x2="1046.74" y2="103.729" style="stroke:#181818;stroke-width:1;"/><ellipse cx="1032.878" cy="101.77" rx="4" ry="4" fill="none" style="stroke:#181818;stroke-width:1;"/><text x="600" y="81.792" fill="#000" font-size="13" textLength="57.078" font-family="Arial">logical FK</text></g><g class="legend" data-source-line="62"><rect x="448.704" y="378.888" width="413.908" height="78.395" fill="none" style="stroke:#000;stroke-width:1;" rx="7.5" ry="7.5"/><text x="457.594" y="399.02" fill="#000" font-size="14" textLength="45.917" font-weight="700" font-family="Arial">Marker</text><text x="511.29" y="399.02" fill="#000" font-size="14" textLength="56.779" font-weight="700" font-family="Arial">Meaning</text><text x="457.594" y="415.118" fill="#000" font-size="14" textLength="18.676" font-family="Arial">PK</text><text x="511.29" y="415.118" fill="#000" font-size="14" textLength="259.109" font-family="Arial">primary key inherited from AuditableEntity</text><text x="457.594" y="431.217" fill="#000" font-size="14" textLength="17.89" font-family="Arial">FK</text><text x="511.29" y="431.217" fill="#000" font-size="14" textLength="220.247" font-family="Arial">database-enforced JPA association</text><text x="457.594" y="447.315" fill="#000" font-size="14" textLength="25.676" font-family="Arial">LFK</text><text x="511.29" y="447.315" fill="#000" font-size="14" textLength="342.433" font-family="Arial">logical foreign key stored as Long; application-enforced</text><line x1="453.704" y1="385.888" x2="857.612" y2="385.888" style="stroke:#000;stroke-width:1;"/><line x1="453.704" y1="401.986" x2="857.612" y2="401.986" style="stroke:#000;stroke-width:1;"/><line x1="453.704" y1="418.085" x2="857.612" y2="418.085" style="stroke:#000;stroke-width:1;"/><line x1="453.704" y1="434.184" x2="857.612" y2="434.184" style="stroke:#000;stroke-width:1;"/><line x1="453.704" y1="450.282" x2="857.612" y2="450.282" style="stroke:#000;stroke-width:1;"/><line x1="453.704" y1="385.888" x2="453.704" y2="450.282" style="stroke:#000;stroke-width:1;"/><line x1="507.4" y1="385.888" x2="507.4" y2="450.282" style="stroke:#000;stroke-width:1;"/><line x1="857.612" y1="385.888" x2="857.612" y2="450.282" style="stroke:#000;stroke-width:1;"/></g><?plantuml-src fLJRJjj047ttLymZL0qAlKWLfKWcEDGb2I4Nf3vP6tjYhxBUjNRNW8lxxnt73d5eGAruMTbppbpEpEnQRWM29r77HKzfXB4oDjOulHb01ywv45p6u4qk785B2rQ1vd5Y8U8QGykLT18U8QHe4nMP-iTOrAXiaQ5np8hBZ6cMmeA5grYhN4Oz9PI6-uHRRE4cOP6whx8jcJ1j9C8bouNjAsb7B4LmDMUYXOU26UDQg_aYj-Y7IaxvBuIkuw2qt1OmdtgJAJmw0E-0Ht02v_ubcNnt0AUduwkpC-VtXZeUkAFNgG2T3XsX8gKdSEjEUj_ToS6dxY4HvZThWgogt69VkeTaJAdyH1H1fdc80Kkf4vP8e_cGmlSEZhllF_nD2tEjKOP5Azfn7Oqz117U4SSGvezctgKtQUpKPClb7e09rBPjVf8zdPzFUnD_FFEl_qr-Rb076mQ58tZGh_5CCFaCQX1ZcSrDIyl7jHOoQnj4p5PDkt1d7jbGHZkMxO3SdqDlD7jhaIPVc53ph5hX_SM-EA4NP_A2l8mLAHKVr7Ua1NzkO1u5h4eqyuVUTEOEnrkr_kZsskzvRnv9Ky9UeLpUgMhNP9ukKE_kxNQdhR9C1F_V56vCZet0Pf9EVH_BykX8FJvRlHCGAkOX4z2_SkhBM9QTpXvUbXHcGzp56eUdJTdbxYHlSTfvDzPrf78xXLSYjJYjIFHgnhJAi53MgfJQKNw38TChwdFrXKnM3rvP0J2-eeEkVSfq0IiiQ309Qdea8rXgbOARHzooXK2ltetQgrzvqKrX2sQmWtAfT4WUFyOkqAkeGiwg5M_8WpLxKnzHaSTodSjO-ed81GPAnb-1PPaWKkMx3LhIMaQreZy0?></g></svg>